<svg xmlns="http://www.w3.org/2000/svg" viewBox="0 0 57.09 53.36"><defs><style>.cls-1{fill:#b5873a;}</style></defs><g id="Layer_2" data-name="Layer 2"><g id="Layer_1-2" data-name="Layer 1"><path class="cls-1" d="M48,0c.51.06,1,.14,1.55.18s1.1,0,1.65,0a1.25,1.25,0,0,1,.94.8,5.32,5.32,0,0,0,.25.77c.08.22.22.41.31.62.17.44.32.88.5,1.31s.5,1.1.75,1.64.6,1.3.92,1.93c.14.28.35.52.5.78a6,6,0,0,1,.25.58c.3.66.57,1.33.89,2,.14.28.43.5.52.79a1.84,1.84,0,0,1,0,.93,2,2,0,0,1-.64.84.3.3,0,0,0-.1.21c0,.4-.27.6-.51.81a1.59,1.59,0,0,1-.74.48c-.17,0-.29.29-.45.43-.52.47-1.07.91-1.57,1.4-.66.66-.77.51-1.5,0a12.23,12.23,0,0,1-1-.94l-1.74.77c-.59.27-1.19.52-1.77.83a6.2,6.2,0,0,0-.88.67c-.55.44-1.08.9-1.65,1.32a.74.74,0,0,1-.57,0,2.57,2.57,0,0,1-.6-.39c-.29-.21-.58-.42-.85-.65s-.46-.45-.7-.65a.5.5,0,0,0-.32-.15,8.26,8.26,0,0,0-1.22,0,.54.54,0,0,0-.35.24c0,.07.07.23.13.33.22.4.48.77.66,1.18s-.05.65-.51.89-.74.56-1.15.76a3.8,3.8,0,0,0-.74.49l-1.78,1.42a5,5,0,0,1-.62.4,1.39,1.39,0,0,1-.8.23c-1.61-.08-3.22-.14-4.83-.2a.77.77,0,0,0-.89.67c-.07.3-.14.6-.23.89a4.11,4.11,0,0,1-.21.42c-.21.54-.4,1.08-.62,1.61s-.38.79-.55,1.2c-.1.23-.15.48-.24.72s-.15.38-.24.57c-.18.39-.39.76-.56,1.16s-.16.57-.26.86-.2.47-.3.7a.89.89,0,0,0-.09.26,4.23,4.23,0,0,1-.46,1.29c-.12.24-.22.5-.33.75s-.29.72-.48,1a1.3,1.3,0,0,1-.45.42c-.48.29-1,.54-1.46.82l-.91.52-1.8,1.13A20.45,20.45,0,0,1,18.3,39.3c-.4.19-.34.46-.38.76a2,2,0,0,0,.52,1.57A1.79,1.79,0,0,1,19,43.1a9.41,9.41,0,0,1-.25.91c-.12.44-.25.89-.37,1.34l-.27,1c0,.12-.08.3,0,.35s.24.06.36.05c.34,0,.67-.09,1-.12s.45.17.57.43c.22.49.47,1,.73,1.43.14.27.37.23.59.12a1.29,1.29,0,0,1,1.91.32,6.8,6.8,0,0,1,.8.81.85.85,0,0,1,0,.68,2.43,2.43,0,0,1-1,.9,20.66,20.66,0,0,0-1.92,1.28c-.28.22-.6.4-.87.62s-.68.07-1-.08c-.64-.37-1.25-.79-1.86-1.22-.38-.26-.71-.58-1.07-.86a.69.69,0,0,0-.31-.12c-.21,0-.44,0-.65,0a.85.85,0,0,0-.93.62c-.18.43-.39.85-.61,1.27a.32.32,0,0,1-.22.15A2.82,2.82,0,0,1,13,53c-.59,0-1.17,0-1.75,0-.8,0-1.11-.47-1.38-1-.16-.35-.36-.68-.54-1l-.65-1.31c-.26-.51-.54-1-.79-1.55-.1-.2-.17-.43-.26-.64a5.05,5.05,0,0,0-.24-.53c-.32-.61-.66-1.2-1-1.82s-.56-1.26-.87-1.89a1.7,1.7,0,0,0-.87-.86c-.14,0-.31-.08-.35.15-.07.41-.15.81-.22,1.21-.11.59-.23,1.19-.35,1.78-.07.37-.17.74-.22,1.11-.1.64-.18,1.28-.27,1.92,0,.26-.2.36-.44.39-.49.07-.82-.24-1.19-.48L.8,47.82C.49,47.61.11,47.44,0,47a3.09,3.09,0,0,1,0-.91c.05-.42.15-.84.19-1.26.09-.88.14-1.77.23-2.65.12-1.14.24-2.27.4-3.39a3.94,3.94,0,0,1,.34-1c.23-.57.45-1.14.7-1.7s.5-1,.75-1.53.41-.93.63-1.39.42-.78.62-1.17.29-.71.45-1c.3-.64.61-1.27.91-1.9L5.81,28c.4-.86.81-1.72,1.21-2.59.15-.32.26-.68.44-1,.36-.6.74-1.19,1.15-1.76s.87-1.15,1.33-1.7.74-.8,1.09-1.22c.65-.77,1.32-1.53,1.9-2.35a15.37,15.37,0,0,0,.93-1.75c.12-.24.26-.46.38-.7s.34-.75.54-1.1c.35-.61.72-1.2,1.08-1.8a3.17,3.17,0,0,1,.25-.56.9.9,0,0,1,.53-.32,3,3,0,0,0,1.1-.35.65.65,0,0,1,.21-.06A1.74,1.74,0,0,0,19.19,10c.45-.7.94-1.38,1.43-2S21.56,6.75,22,6.12s1-1.55,1.55-2.3a7.19,7.19,0,0,1,.84-.91l0,.08a3.73,3.73,0,0,0,.46.09,7,7,0,0,1,1.22.06,7.43,7.43,0,0,1,2.68.73,8.49,8.49,0,0,0,1.19.5c.4.17.79.37,1.19.55a3.59,3.59,0,0,0,.43.14,23.44,23.44,0,0,0,2.32.51,3.55,3.55,0,0,0,1.2-.26c.36-.09.71-.22,1.07-.34s.69-.25,1-.37a.64.64,0,0,1,.2,0,4.28,4.28,0,0,0,1.41-.38A7.49,7.49,0,0,1,39.65,4c.41-.13.81-.28,1.22-.42a5.08,5.08,0,0,0,.69-.23,14,14,0,0,0,1.28-.66c.53-.32,1-.68,1.56-1,.34-.23.66-.49,1-.7s.65-.33,1-.51S46.8.14,47,0ZM3.35,40.83h.19A2.19,2.19,0,0,1,4.6,41a6.16,6.16,0,0,0,1,.28,1.15,1.15,0,0,1,.55.34,11.17,11.17,0,0,1,.66,1.29c.24.5.45,1,.71,1.5s.63,1.1.91,1.66a14,14,0,0,0,.83,1.64,7.53,7.53,0,0,1,.67,1.5c.15.34.26.7.42,1s.42.77.63,1.15a.29.29,0,0,0,.16.13c.51.08,1,.16,1.52.2a.51.51,0,0,0,.39-.21c.22-.32.38-.68.59-1s.41-.67.92-.64,1.32,0,2,0a.85.85,0,0,1,.36,0c.47.24.77.69,1.25.91s.51.71,1,.7c0,0,0,0,.07.06a2.27,2.27,0,0,0,.54.35c.26.08.34-.23.52-.34s.63-.31.91-.51.74-.61,1.13-.9a.42.42,0,0,0,.14-.53c-.29,0-.56,0-.83,0-.06,0-.13,0-.16,0a1.11,1.11,0,0,1-.85.35.57.57,0,0,1-.43-.2,6.47,6.47,0,0,1-.55-.91c-.11-.2-.14-.44-.26-.62A1.21,1.21,0,0,0,19,48a1.13,1.13,0,0,0-.92,0,3.59,3.59,0,0,1-.93,0,.7.7,0,0,1-.59-.75c.14-.46.26-.92.39-1.37s.26-.93.41-1.39c0-.1.18-.17.2-.28A7.86,7.86,0,0,0,17.7,43c0-.41-.25-.69-.46-1a2,2,0,0,1-.52-1.28c0-.3,0-.62,0-.92A8.67,8.67,0,0,1,17,38.71c0-.06.09-.11.15-.15l1.77-1.09c.54-.33,1.08-.68,1.61-1s.77-.5,1.16-.73.61-.29.9-.46.73-.49,1.1-.74c0,0,0-.05.05-.08l.87-2L25.2,31a1.82,1.82,0,0,1,.29-.63c.38-.35.34-.85.49-1.28s.14-.66.27-1,.39-.56.4-.95a2.18,2.18,0,0,1,.26-.71c.17-.39.36-.77.53-1.16s.36-.89.55-1.33c.08-.19.25-.38.26-.57a4.13,4.13,0,0,1,.35-1.06c.13-.41.4-.45.73-.44.1,0,.2,0,.3,0,1.66.06,3.33.11,5,.19a1.56,1.56,0,0,0,1.17-.42c.18-.16.33-.34.52-.49s.27-.15.4-.25c.38-.29.74-.61,1.14-.89s.72-.41,1.08-.63a.49.49,0,0,0,.1-.78,5.09,5.09,0,0,1-.3-.5c-.16-.31-.31-.64-.47-1s.06-.6.28-.63c.65-.09,1.31-.17,2-.22.38,0,.75,0,1.12,0a1.26,1.26,0,0,0,.36-.12c.1.09.24.21.37.35.39.38.76.78,1.15,1.15.15.14.31.43.53.26a5.64,5.64,0,0,1,.9-.69,7.15,7.15,0,0,0,.76-.6,9.8,9.8,0,0,1,2.07-1.16c.48-.2.94-.44,1.41-.67s.72-.4,1.1-.55a.77.77,0,0,1,.6,0,13.42,13.42,0,0,1,1.1,1,.39.39,0,0,0,.6,0c.08-.08.14-.17.23-.25.66-.56,1.31-1.13,2-1.67.31-.24.67-.4,1-.62s.41-.52.12-.91a4.31,4.31,0,0,1-.42-.63c-.21-.38-.39-.78-.58-1.16s-.32-.61-.46-.92-.31-.73-.48-1.09S53.58,7.37,53.4,7s-.29-.64-.44-1c-.26-.55-.54-1.08-.78-1.64s-.29-.84-.46-1.26-.43-.89-.58-1.36c-.09-.27-.2-.36-.46-.35-1,0-2.07,0-3.1,0a2.73,2.73,0,0,0-1.4.48c-.44.23-.85.54-1.28.8-.25.15-.6.23-.76.44s-.59.4-.87.6c-.43.29-.9.53-1.36.78a3.26,3.26,0,0,1-.62.22c-.32.09-.63.16-.94.26l-1.58.54-1.3.4c-.29.09-.57.18-.85.24s-.58,0-.88.18a3.3,3.3,0,0,1-1.2.42,6.42,6.42,0,0,1-2.35-.21l0,0-.94-.35c-.28-.09-.58-.13-.85-.24-.61-.26-1.21-.55-1.82-.83A3,3,0,0,1,28,4.88a1.72,1.72,0,0,0-1-.35,8.82,8.82,0,0,1-1.61-.24.75.75,0,0,0-.87.26,13.43,13.43,0,0,0-.91,1.32A8.12,8.12,0,0,1,22.84,7c-.25.33-.51.64-.77,1a1.34,1.34,0,0,0-.21.2c-.18.29-.34.6-.53.89s-.33.45-.49.67-.36.53-.55.78-.41.36-.48.59a.68.68,0,0,1-.46.47l-.66.24a7.53,7.53,0,0,1-1.21.34.71.71,0,0,0-.6.39c-.28.53-.54,1.06-.8,1.59a4,4,0,0,1-.24.64,5.71,5.71,0,0,0-.69,1.17c-.2.45-.51.86-.7,1.31a4.83,4.83,0,0,1-.84,1.33c-.39.46-.82.88-1.22,1.32-.17.19-.28.41-.43.61s-.32.34-.46.52a3.81,3.81,0,0,1-.23.4c-.46.53-.94,1-1.38,1.56A11.31,11.31,0,0,0,9.12,24a8.68,8.68,0,0,0-.46.85c-.22.48-.42,1-.65,1.45s-.37.75-.56,1.12c-.07.13-.14.25-.2.39-.26.54-.5,1.1-.76,1.64-.15.33-.33.63-.48,1s-.33.76-.51,1.14l-1,2c-.09.18-.13.39-.22.58-.19.38-.41.75-.6,1.13s-.36.72-.53,1.08-.33.64-.48,1-.35.89-.58,1.29a1.78,1.78,0,0,0-.25,1c0,.84,0,1.69,0,2.54a2.58,2.58,0,0,1,0,.39c-.11.69-.24,1.38-.34,2.08a5,5,0,0,1-.07,1,1,1,0,0,0,.06,1,.84.84,0,0,0,.83.43c.07-.58.15-1.17.22-1.75,0-.13,0-.27,0-.4.11-.46.26-.91.34-1.38s.17-1.21.26-1.81C3.19,41.49,3.28,41.17,3.35,40.83Z"/><path class="cls-1" d="M3.35,40.83c-.07.34-.16.66-.22,1C3,42.42,3,43,2.87,43.63s-.23.92-.34,1.38c0,.13,0,.27,0,.4-.07.58-.15,1.17-.22,1.75a.84.84,0,0,1-.83-.43,1,1,0,0,1-.06-1,5,5,0,0,0,.07-1c.1-.7.23-1.39.34-2.08a2.58,2.58,0,0,0,0-.39c0-.85,0-1.7,0-2.54a1.78,1.78,0,0,1,.25-1c.23-.4.38-.86.58-1.29s.32-.64.48-1,.34-.72.53-1.08.41-.75.6-1.13c.09-.19.13-.4.22-.58l1-2c.18-.38.33-.77.51-1.14s.33-.63.48-1c.26-.54.5-1.1.76-1.64.06-.14.13-.26.2-.39.19-.37.38-.74.56-1.12s.43-1,.65-1.45A8.68,8.68,0,0,1,9.12,24,11.31,11.31,0,0,1,9.89,23c.44-.53.92-1,1.38-1.56a3.81,3.81,0,0,0,.23-.4c.14-.18.31-.34.46-.52s.26-.42.43-.61c.4-.44.83-.86,1.22-1.32a4.83,4.83,0,0,0,.84-1.33c.19-.45.5-.86.7-1.31a5.71,5.71,0,0,1,.69-1.17,4,4,0,0,0,.24-.64c.26-.53.52-1.06.8-1.59a.71.71,0,0,1,.6-.39,7.53,7.53,0,0,0,1.21-.34l.66-.24a.68.68,0,0,0,.46-.47c.07-.23.33-.38.48-.59s.36-.52.55-.78.34-.43.49-.67.35-.6.53-.89a1.34,1.34,0,0,1,.21-.2c.26-.32.52-.63.77-1a8.12,8.12,0,0,0,.82-1.13,13.43,13.43,0,0,1,.91-1.32.75.75,0,0,1,.87-.26,8.82,8.82,0,0,0,1.61.24,1.72,1.72,0,0,1,1,.35,3,3,0,0,0,.51.25c.61.28,1.21.57,1.82.83.27.11.57.15.85.24l.94.35,0,0a6.42,6.42,0,0,0,2.35.21,3.3,3.3,0,0,0,1.2-.42c.3-.2.59-.12.88-.18s.56-.15.85-.24l1.3-.4L40.35,5c.31-.1.62-.17.94-.26a3.26,3.26,0,0,0,.62-.22c.46-.25.93-.49,1.36-.78.28-.2.63-.28.87-.6s.51-.29.76-.44c.43-.26.84-.57,1.28-.8a2.73,2.73,0,0,1,1.4-.48c1,.05,2.07,0,3.1,0,.26,0,.37.08.46.35.15.47.4.9.58,1.36s.28.85.46,1.26S52.7,5.5,53,6.05c.15.32.28.64.44,1s.38.71.56,1.07.31.73.48,1.09.31.61.46.92.37.78.58,1.16a4.31,4.31,0,0,0,.42.63c.29.39.27.66-.12.91s-.68.38-1,.62c-.67.54-1.32,1.11-2,1.67-.09.08-.15.17-.23.25a.39.39,0,0,1-.6,0,13.42,13.42,0,0,0-1.1-1,.77.77,0,0,0-.6,0c-.38.15-.73.37-1.1.55s-.93.47-1.41.67a9.8,9.8,0,0,0-2.07,1.16,7.15,7.15,0,0,1-.76.6,5.64,5.64,0,0,0-.9.69c-.22.17-.38-.12-.53-.26-.39-.37-.76-.77-1.15-1.15-.13-.14-.27-.26-.37-.35a1.26,1.26,0,0,1-.36.12c-.37,0-.74,0-1.12,0-.65.05-1.31.13-2,.22-.22,0-.38.43-.28.63s.31.64.47,1a5.09,5.09,0,0,0,.3.5.49.49,0,0,1-.1.78c-.36.22-.74.4-1.08.63s-.76.6-1.14.89c-.13.1-.28.15-.4.25s-.34.33-.52.49a1.56,1.56,0,0,1-1.17.42c-1.67-.08-3.34-.13-5-.19-.1,0-.2,0-.3,0-.33,0-.6,0-.73.44a4.13,4.13,0,0,0-.35,1.06c0,.19-.18.38-.26.57-.19.44-.36.89-.55,1.33s-.36.77-.53,1.16a2.18,2.18,0,0,0-.26.71c0,.39-.27.64-.4.95s-.16.66-.27,1-.11.93-.49,1.28a1.82,1.82,0,0,0-.29.63l-.63,1.45-.87,2s0,.07-.05.08c-.37.25-.72.51-1.1.74s-.61.29-.9.46-.77.49-1.16.73-1.07.69-1.61,1l-1.77,1.09c-.06,0-.14.09-.15.15a8.67,8.67,0,0,0-.22,1.13c0,.3,0,.62,0,.92A2,2,0,0,0,17.24,42c.21.31.49.59.46,1a7.86,7.86,0,0,1-.17,1.17c0,.11-.17.18-.2.28-.15.46-.27.93-.41,1.39s-.25.91-.39,1.37a.7.7,0,0,0,.59.75,3.59,3.59,0,0,0,.93,0A1.13,1.13,0,0,1,19,48a1.21,1.21,0,0,1,.4.34c.12.18.15.42.26.62a6.47,6.47,0,0,0,.55.91.57.57,0,0,0,.43.2,1.11,1.11,0,0,0,.85-.35s.1,0,.16,0c.27,0,.54,0,.83,0a.42.42,0,0,1-.14.53c-.39.29-.73.62-1.13.9s-.61.33-.91.51S20,52,19.75,52a2.27,2.27,0,0,1-.54-.35s-.05-.07-.07-.06c-.51,0-.64-.53-1-.7s-.78-.67-1.25-.91a.85.85,0,0,0-.36,0c-.65,0-1.32,0-2,0s-.71.31-.92.64-.37.69-.59,1a.51.51,0,0,1-.39.21c-.51,0-1-.12-1.52-.2a.29.29,0,0,1-.16-.13c-.21-.38-.44-.76-.63-1.15s-.27-.7-.42-1a7.53,7.53,0,0,0-.67-1.5,14,14,0,0,1-.83-1.64c-.28-.56-.62-1.1-.91-1.66s-.47-1-.71-1.5a11.17,11.17,0,0,0-.66-1.29,1.15,1.15,0,0,0-.55-.34,6.16,6.16,0,0,1-1-.28,2.19,2.19,0,0,0-1.06-.19Z"/></g></g></svg>